<svg width="30" height="40" viewBox="0 0 30 40" fill="none" xmlns="http://www.w3.org/2000/svg">
  <path d="M27.261 0c-.8 0-1.44.268-1.974.752-.533.537-.8 1.18-.8 2.04v19.275h-.053c0 .054 0 .107.053.161v1.45c0 3.65-.107 6.013-3.254 9.02-.374.322-.8.59-1.227.86-1.494.912-3.094 1.341-4.908 1.341-1.814 0-3.468-.43-4.908-1.342-1.494-.913-2.614-2.148-3.468-3.705-.854-1.557-1.28-3.329-1.28-5.261 0-1.933.426-3.705 1.28-5.262.854-1.557 2.027-2.792 3.468-3.651 1.333-.806 2.774-1.235 4.32-1.342l-1.92 1.932c-1.013 1.02-1.013 2.739 0 3.813 1.014 1.02 2.721 1.02 3.788 0l6.295-6.336c1.014-1.02 1.014-2.738 0-3.812l-6.348-6.336c-1.014-1.02-2.721-1.02-3.788 0-1.014 1.02-1.014 2.739 0 3.812l2.027 2.04h-.587c-2.614 0-4.961.645-7.095 1.987-2.134 1.342-3.788 3.114-5.015 5.477C.587 19.168 0 21.745 0 24.59c0 2.845.64 5.422 1.974 7.785 1.334 2.309 3.094 4.134 5.441 5.476 2.294 1.343 4.855 1.987 7.63 1.987 2.774 0 5.334-.644 7.575-1.987 2.294-1.342 4.054-3.167 5.388-5.476 1.334-2.309 1.974-4.886 1.974-7.785V2.79c0-.858-.267-1.502-.747-2.04-.48-.481-1.174-.75-1.974-.75Z" fill="#18181B"/>
</svg>
